<svg xmlns="http://www.w3.org/2000/svg" width="1027.333" height="794.237" viewBox="0 0 1027.333 794.237">
  <path id="element-4" d="M667,3371.035c-40.09,8.924-69.093,102.626-55.707,203.021s42.389,234.254,136.091,314.57,160.632,142.784,290.029,153.939,267.719,0,350.266-22.31,107.088-40.158,174.018-80.316,73.623-138.322,73.623-138.322v-178.48c0-8.924-42.389-98.164-42.389-98.164L1451.6,3461.212s-137.586-58.943-162.127-67.867-319.53-195.815-392.12-124.423,133.369,160.118,19.588,171.273-118.243,22.31-169.556-11.155S707.09,3362.111,667,3371.035Z" transform="translate(-607.987 -3252.704)" fill="#3480e3" opacity="0.15"/>
</svg>
